<svg xmlns="http://www.w3.org/2000/svg" xmlns:xlink="http://www.w3.org/1999/xlink" width="490" zoomAndPan="magnify" viewBox="0 0 367.5 167.999997" height="224" preserveAspectRatio="xMidYMid meet" version="1.0"><defs><g/><clipPath id="8fccfd9283"><path d="M 187 83 L 233.515625 83 L 233.515625 129.414062 L 187 129.414062 Z M 187 83 " clip-rule="nonzero"/></clipPath><clipPath id="28aadfb413"><path d="M 142.140625 38.039062 L 226 38.039062 L 226 122 L 142.140625 122 Z M 142.140625 38.039062 " clip-rule="nonzero"/></clipPath></defs><g fill="#12b981" fill-opacity="1"><g transform="translate(49.004992, 105.974996)"><g/></g></g><g fill="#12b981" fill-opacity="1"><g transform="translate(81.897373, 105.974996)"><g><path d="M 42.546875 -31.96875 L 42.546875 -3.25 C 42.546875 -2.195312 42.1875 -1.304688 41.46875 -0.578125 C 40.75 0.140625 39.859375 0.5 38.796875 0.5 C 37.796875 0.5 36.9375 0.140625 36.21875 -0.578125 C 35.5 -1.304688 35.140625 -2.195312 35.140625 -3.25 L 35.140625 -31.3125 C 35.140625 -33.144531 34.640625 -34.753906 33.640625 -36.140625 C 32.640625 -37.523438 30.835938 -38.21875 28.234375 -38.21875 C 26.066406 -38.21875 24.007812 -37.648438 22.0625 -36.515625 C 20.125 -35.378906 17.597656 -33.585938 14.484375 -31.140625 L 14.484375 -3.25 C 14.484375 -2.195312 14.125 -1.304688 13.40625 -0.578125 C 12.6875 0.140625 11.796875 0.5 10.734375 0.5 C 9.679688 0.5 8.804688 0.125 8.109375 -0.625 C 7.421875 -1.375 7.078125 -2.25 7.078125 -3.25 L 7.078125 -41.390625 C 7.078125 -42.328125 7.410156 -43.113281 8.078125 -43.75 C 8.742188 -44.394531 9.519531 -44.71875 10.40625 -44.71875 C 11.289062 -44.71875 12.050781 -44.425781 12.6875 -43.84375 C 13.332031 -43.257812 13.679688 -42.519531 13.734375 -41.625 L 14.078125 -37.390625 C 16.015625 -39.222656 17.734375 -40.707031 19.234375 -41.84375 C 20.734375 -42.976562 22.242188 -43.820312 23.765625 -44.375 C 25.296875 -44.9375 27.085938 -45.21875 29.140625 -45.21875 C 32.304688 -45.21875 34.875 -44.632812 36.84375 -43.46875 C 38.8125 -42.300781 40.253906 -40.71875 41.171875 -38.71875 C 42.085938 -36.71875 42.546875 -34.46875 42.546875 -31.96875 Z M 42.546875 -31.96875 "/></g></g></g><g fill="#12b981" fill-opacity="1"><g transform="translate(137.932186, 105.974996)"><g/></g></g><g fill="#12b981" fill-opacity="1"><g transform="translate(170.820267, 105.974996)"><g/></g></g><g fill="#12b981" fill-opacity="1"><g transform="translate(203.708348, 105.974996)"><g/></g></g><g fill="#12b981" fill-opacity="1"><g transform="translate(236.609332, 105.974996)"><g><path d="M 5.15625 -37.796875 C 4.269531 -37.796875 3.507812 -38.113281 2.875 -38.75 C 2.238281 -39.394531 1.921875 -40.160156 1.921875 -41.046875 C 1.921875 -41.929688 2.238281 -42.679688 2.875 -43.296875 C 3.507812 -43.910156 4.269531 -44.21875 5.15625 -44.21875 L 8.15625 -44.21875 L 8.15625 -54.78125 C 8.15625 -55.78125 8.53125 -56.65625 9.28125 -57.40625 C 10.03125 -58.15625 10.929688 -58.53125 11.984375 -58.53125 C 12.984375 -58.53125 13.832031 -58.15625 14.53125 -57.40625 C 15.226562 -56.65625 15.578125 -55.78125 15.578125 -54.78125 L 15.578125 -44.21875 L 20.484375 -44.21875 C 21.429688 -44.21875 22.207031 -43.910156 22.8125 -43.296875 C 23.425781 -42.679688 23.734375 -41.90625 23.734375 -40.96875 C 23.734375 -40.082031 23.425781 -39.332031 22.8125 -38.71875 C 22.207031 -38.101562 21.429688 -37.796875 20.484375 -37.796875 L 15.578125 -37.796875 L 15.578125 -11.234375 C 15.578125 -10.347656 15.628906 -9.503906 15.734375 -8.703125 C 15.847656 -7.898438 16.195312 -7.25 16.78125 -6.75 C 17.363281 -6.25 18.347656 -6 19.734375 -6 L 21.0625 -6 C 21.894531 -6 22.628906 -5.707031 23.265625 -5.125 C 23.910156 -4.539062 24.234375 -3.832031 24.234375 -3 C 24.234375 -2.113281 23.953125 -1.363281 23.390625 -0.75 C 22.835938 -0.132812 22.117188 0.222656 21.234375 0.328125 C 21.234375 0.328125 20.925781 0.351562 20.3125 0.40625 C 19.707031 0.46875 18.679688 0.5 17.234375 0.5 C 13.628906 0.5 11.210938 -0.273438 9.984375 -1.828125 C 8.765625 -3.378906 8.15625 -5.9375 8.15625 -9.5 L 8.15625 -37.796875 Z M 5.15625 -37.796875 "/></g></g></g><g fill="#12b981" fill-opacity="1"><g transform="translate(268.581577, 105.974996)"><g><path d="M 25.0625 -38.390625 C 21.175781 -38.390625 18.09375 -37.148438 15.8125 -34.671875 C 13.539062 -32.203125 12.179688 -29.164062 11.734375 -25.5625 L 38.796875 -25.5625 C 38.359375 -29.5 36.875 -32.617188 34.34375 -34.921875 C 31.820312 -37.234375 28.726562 -38.390625 25.0625 -38.390625 Z M 36.140625 -10.40625 C 36.523438 -10.789062 36.9375 -11.132812 37.375 -11.4375 C 37.820312 -11.75 38.378906 -11.90625 39.046875 -11.90625 C 39.992188 -11.90625 40.800781 -11.570312 41.46875 -10.90625 C 42.132812 -10.238281 42.46875 -9.488281 42.46875 -8.65625 C 42.46875 -7.488281 41.757812 -6.15625 40.34375 -4.65625 C 38.925781 -3.164062 36.96875 -1.847656 34.46875 -0.703125 C 31.96875 0.429688 29.109375 1 25.890625 1 C 21.898438 1 18.265625 0.015625 14.984375 -1.953125 C 11.710938 -3.921875 9.117188 -6.65625 7.203125 -10.15625 C 5.285156 -13.65625 4.328125 -17.65625 4.328125 -22.15625 C 4.328125 -26.207031 5.144531 -29.976562 6.78125 -33.46875 C 8.425781 -36.96875 10.816406 -39.800781 13.953125 -41.96875 C 17.085938 -44.132812 20.847656 -45.21875 25.234375 -45.21875 C 29.671875 -45.21875 33.441406 -44.144531 36.546875 -42 C 39.660156 -39.863281 42.0625 -37.035156 43.75 -33.515625 C 45.445312 -29.992188 46.296875 -26.148438 46.296875 -21.984375 C 46.296875 -21.316406 46.054688 -20.757812 45.578125 -20.3125 C 45.109375 -19.875 44.539062 -19.65625 43.875 -19.65625 L 11.734375 -19.65625 C 12.015625 -17.207031 12.722656 -14.925781 13.859375 -12.8125 C 15.003906 -10.707031 16.601562 -9.03125 18.65625 -7.78125 C 20.707031 -6.53125 23.203125 -5.90625 26.140625 -5.90625 C 28.921875 -5.90625 31.046875 -6.40625 32.515625 -7.40625 C 33.984375 -8.40625 35.191406 -9.40625 36.140625 -10.40625 Z M 36.140625 -10.40625 "/></g></g></g><g clip-path="url(#8fccfd9283)"><path fill="#7ed957" d="M 233.316406 101.464844 C 233.316406 102.339844 232.742188 103.09375 231.949219 103.351562 L 213.496094 109.394531 L 207.453125 127.847656 C 207.191406 128.640625 206.4375 129.214844 205.570312 129.214844 C 204.71875 129.214844 204.003906 128.679688 203.726562 127.945312 L 187.871094 86.324219 C 187.765625 86.101562 187.730469 85.867188 187.730469 85.609375 C 187.730469 84.519531 188.621094 83.625 189.710938 83.625 C 189.96875 83.625 190.207031 83.664062 190.425781 83.765625 L 232.050781 99.625 C 232.78125 99.898438 233.316406 100.613281 233.316406 101.464844 Z M 233.316406 101.464844 " fill-opacity="1" fill-rule="nonzero"/></g><g clip-path="url(#28aadfb413)"><path fill="#12b981" d="M 183.929688 121.617188 C 160.890625 121.617188 142.140625 102.867188 142.140625 79.828125 C 142.140625 56.785156 160.890625 38.039062 183.929688 38.039062 C 206.972656 38.039062 225.71875 56.785156 225.71875 79.828125 C 225.71875 81.6875 225.597656 83.519531 225.355469 85.265625 C 225.074219 87.34375 223.148438 88.792969 221.078125 88.511719 C 218.996094 88.226562 217.542969 86.308594 217.832031 84.230469 C 218.027344 82.824219 218.121094 81.34375 218.121094 79.828125 C 218.121094 60.976562 202.785156 45.636719 183.929688 45.636719 C 165.074219 45.636719 149.738281 60.976562 149.738281 79.828125 C 149.738281 98.679688 165.074219 114.019531 183.929688 114.019531 C 185.433594 114.019531 186.917969 113.917969 188.335938 113.726562 C 190.40625 113.425781 192.332031 114.894531 192.613281 116.972656 C 192.894531 119.050781 191.441406 120.964844 189.363281 121.25 C 187.605469 121.496094 185.777344 121.617188 183.929688 121.617188 Z M 183.929688 121.617188 " fill-opacity="1" fill-rule="nonzero"/></g><path fill="#12b981" d="M 182.125 102.5625 C 182.007812 102.5625 181.890625 102.558594 181.769531 102.550781 C 169.976562 101.453125 161.078125 91.683594 161.078125 79.824219 C 161.078125 67.226562 171.324219 56.976562 183.925781 56.976562 C 195.824219 56.976562 205.597656 65.890625 206.652344 77.714844 C 206.839844 79.804688 205.300781 81.652344 203.207031 81.835938 C 201.050781 81.992188 199.269531 80.476562 199.085938 78.390625 C 198.378906 70.511719 191.863281 64.570312 183.925781 64.570312 C 175.519531 64.570312 168.675781 71.410156 168.675781 79.820312 C 168.675781 87.734375 174.609375 94.25 182.476562 94.980469 C 184.5625 95.175781 186.097656 97.023438 185.90625 99.113281 C 185.722656 101.085938 184.066406 102.5625 182.125 102.5625 Z M 182.125 102.5625 " fill-opacity="1" fill-rule="nonzero"/></svg>